Coordinates
version=1
nRows=14
nColumns=40
inDegrees=yes

Units are S.I. units (second, meters, Newtons, ...)
If the header above contains a line with 'inDegrees', this indicates whether rotational values are in degrees (yes) or radians (no).

endheader
time	pelvis_tilt	pelvis_list	pelvis_rotation	pelvis_tx	pelvis_ty	pelvis_tz	hip_flexion_r	hip_adduction_r	hip_rotation_r	knee_angle_r	knee_angle_r_beta	ankle_angle_r	subtalar_angle_r	mtp_angle_r	hip_flexion_l	hip_adduction_l	hip_rotation_l	knee_angle_l	knee_angle_l_beta	ankle_angle_l	subtalar_angle_l	mtp_angle_l	lumbar_extension	lumbar_bending	lumbar_rotation	arm_flex_r	arm_add_r	arm_rot_r	elbow_flex_r	pro_sup_r	wrist_flex_r	wrist_dev_r	arm_flex_l	arm_add_l	arm_rot_l	elbow_flex_l	pro_sup_l	wrist_flex_l	wrist_dev_l
      1.42000000	     -4.53750514	      2.07312285	    -84.73536449	      0.33807230	      0.87463561	      0.23878363	     20.93228742	     -7.20228448	    -18.51978121	     29.81038481	      0.52028937	      0.20271837	      0.00000000	      0.00000000	      3.15996753	      2.12799544	     -2.63619544	     14.47683737	      0.25266848	      6.44139182	      0.00000000	      0.00000000	     -5.34537168	      2.68254906	     -4.00067119	     -8.22223896	     -6.47964676	     -1.48515912	     39.38737220	     89.15606253	    -26.13891700	      1.87333688	     -7.83734295	    -10.76690207	     10.40749046	     37.96927997	     89.28085288	    -22.22888203	      1.87462658
      1.43000000	     -4.53411989	      1.97922679	    -84.66258623	      0.33828156	      0.87452001	      0.24034004	     21.00177330	     -7.09880439	    -18.69186296	     28.96679906	      0.50556602	      0.06595421	      0.00000000	      0.00000000	      3.03494730	      2.11240604	     -2.64770266	     14.65618161	      0.25579862	      6.58071624	      0.00000000	      0.00000000	     -5.37329165	      2.71489886	     -4.03232590	     -8.12043793	     -6.45759171	     -1.47303147	     39.60165171	     89.15965296	    -26.11196294	      1.90771136	     -7.75927801	    -10.78032928	     10.40747383	     38.08528227	     89.29322266	    -22.23666775	      1.85332674
      1.44000000	     -4.62071016	      1.81759266	    -84.55729349	      0.33852677	      0.87452891	      0.24194898	     20.95712757	     -6.88661372	    -18.92242480	     28.05738741	      0.48969379	     -0.15861042	      0.00000000	      0.00000000	      2.85481640	      1.99203492	     -2.62503808	     14.87209299	      0.25956699	      6.75618896	      0.00000000	      0.00000000	     -5.46109354	      2.85834271	     -4.12852702	     -7.99787309	     -6.44376300	     -1.48233628	     39.84278390	     89.15164061	    -26.06899722	      1.97748291	     -7.69578314	    -10.76687175	     10.41286428	     38.20026623	     89.27363915	    -22.23735849	      1.83649968
      1.45000000	     -4.58773910	      1.72928730	    -84.48956644	      0.33869680	      0.87440050	      0.24338208	     21.08270583	     -6.83182002	    -19.10611666	     27.34310926	      0.47722728	     -0.23946568	      0.00000000	      0.00000000	      2.72547806	      2.00440055	     -2.62046036	     15.00156875	      0.26182677	      6.86579661	      0.00000000	      0.00000000	     -5.51431435	      2.84570672	     -4.10283856	     -7.89492163	     -6.42531963	     -1.44506059	     40.05712059	     89.15960142	    -26.03886028	      1.99975331	     -7.55269241	    -10.77596071	     10.40695205	     38.33562099	     89.28947378	    -22.23480054	      1.81659884
      1.46000000	     -4.96952219	      1.11188790	    -84.16801506	      0.33921568	      0.87512044	      0.24512582	     20.36667846	     -6.31446008	    -19.80234667	     26.16897977	      0.45673486	     -0.71130217	      0.00000000	      0.00000000	      2.06790646	      1.51185413	     -2.40337839	     15.19822233	      0.26525902	      7.16755556	      0.00000000	      0.00000000	     -6.09361876	      3.38611301	     -4.33688320	     -7.75585167	     -6.45275970	     -1.53479172	     40.44990798	     89.15938954	    -25.78420444	      2.34464980	     -7.39880111	    -10.71602879	     10.38162083	     38.46802826	     89.27712166	    -22.14585212	      1.84653274
      1.47000000	     -4.83145935	      1.09278111	    -84.14159968	      0.33930304	      0.87490289	      0.24665021	     20.55931241	     -6.35366957	    -19.84781382	     25.48387511	      0.44477753	     -0.72887383	      0.00000000	      0.00000000	      1.98870890	      1.64623341	     -2.43366639	     15.32287427	      0.26743461	      7.20556726	      0.00000000	      0.00000000	     -6.06532598	      3.24619900	     -4.30009826	     -7.68325515	     -6.42157250	     -1.48098689	     40.67385849	     89.16026413	    -25.75293322	      2.33216865	     -7.29738065	    -10.73966579	     10.39631881	     38.62574636	     89.26917877	    -22.13345697	      1.82900753
      1.48000000	     -4.74132590	      1.05336387	    -84.09596186	      0.33939922	      0.87471635	      0.24820370	     20.71197248	     -6.33302622	    -19.89342785	     24.78181240	      0.43252422	     -0.80339127	      0.00000000	      0.00000000	      1.89903677	      1.72468632	     -2.45572556	     15.47013029	      0.27000471	      7.26445597	      0.00000000	      0.00000000	     -6.04818994	      3.16563822	     -4.29155306	     -7.60842971	     -6.39839394	     -1.43112235	     40.89822210	     89.16589654	    -25.72027898	      2.31216799	     -7.20885299	    -10.74775101	     10.41304552	     38.78129601	     89.27972094	    -22.11514496	      1.81798185
      1.49000000	     -4.71828304	      0.97470471	    -84.02939689	      0.33954225	      0.87461682	      0.24980945	     20.76072593	     -6.23246391	    -19.96191365	     23.96340236	      0.41824027	     -0.98109633	      0.00000000	      0.00000000	      1.78743968	      1.72102581	     -2.46189839	     15.66038032	      0.27332520	      7.36571425	      0.00000000	      0.00000000	     -6.05590951	      3.17001279	     -4.31492291	     -7.52918612	     -6.39382420	     -1.38558288	     41.14637107	     89.16616374	    -25.67046525	      2.28324769	     -7.12877447	    -10.74729604	     10.42738084	     38.94864576	     89.27803171	    -22.07796588	      1.82207994
      1.50000000	     -4.68444553	      0.90423709	    -83.96816398	      0.33960142	      0.87449100	      0.25133790	     20.85810479	     -6.15998031	    -20.08413658	     23.26809803	      0.40610492	     -1.09897139	      0.00000000	      0.00000000	      1.66851567	      1.72784508	     -2.46396636	     15.80365400	      0.27582580	      7.46277013	      0.00000000	      0.00000000	     -6.08253925	      3.14466332	     -4.27241519	     -7.46575075	     -6.39413203	     -1.31466294	     41.36831400	     89.17367840	    -25.62681600	      2.24433785	     -6.99578171	    -10.74558477	     10.43125021	     39.10784948	     89.28472506	    -22.04424989	      1.82292346
      1.51000000	     -4.81705594	      0.69614099	    -83.82729879	      0.33975025	      0.87461095	      0.25291775	     20.72913840	     -5.88717025	    -20.23314798	     22.41356355	      0.39119048	     -1.44509799	      0.00000000	      0.00000000	      1.43849730	      1.53002112	     -2.43755157	     15.99584873	      0.27918023	      7.63587000	      0.00000000	      0.00000000	     -6.22717493	      3.33862978	     -4.35757563	     -7.34495267	     -6.40518150	     -1.27591091	     41.60290797	     89.16443625	    -25.54048079	      2.17711922	     -6.88763261	    -10.71031885	     10.44420789	     39.25884249	     89.26293568	    -21.94015020	      1.87906180
      1.52000000	     -4.75703555	      0.64657631	    -83.81568186	      0.33975744	      0.87443654	      0.25425131	     20.97214333	     -5.89170879	    -20.37360930	     22.03367553	      0.38456018	     -1.43317869	      0.00000000	      0.00000000	      1.31119838	      1.57049044	     -2.44481099	     16.04517852	      0.28004119	      7.68093739	      0.00000000	      0.00000000	     -6.27245354	      3.29618173	     -4.27561236	     -7.21455076	     -6.41253641	     -1.21705077	     41.75472467	     89.17567773	    -25.51917356	      2.14407826	     -6.71299596	    -10.68322761	     10.44605289	     39.37606272	     89.26896249	    -21.92032748	      1.87299707
      1.53000000	     -4.67083680	      0.60907070	    -83.77917981	      0.33980914	      0.87428917	      0.25570320	     21.12434825	     -5.88700085	    -20.47025534	     21.46675786	      0.37466560	     -1.46636114	      0.00000000	      0.00000000	      1.20831174	      1.64875434	     -2.45903579	     16.14001768	      0.28169645	      7.74904452	      0.00000000	      0.00000000	     -6.27587239	      3.21305981	     -4.21125661	     -7.13622764	     -6.42300971	     -1.12613673	     41.97253836	     89.18710288	    -25.49288285	      2.09103385	     -6.56860824	    -10.65960623	     10.46743617	     39.52067036	     89.28178869	    -21.89235188	      1.86672835
      1.54000000	     -4.93110932	      0.22693268	    -83.60023449	      0.33988621	      0.87472133	      0.25769017	     20.64868945	     -5.41815299	    -20.66999385	     20.40890935	      0.35620266	     -2.09087015	      0.00000000	      0.00000000	      0.78798148	      1.26965407	     -2.38888110	     16.37570868	      0.28581003	      7.99017333	      0.00000000	      0.00000000	     -6.53863929	      3.54540144	     -4.24820476	     -7.10478222	     -6.46553260	     -1.02897413	     42.15209512	     89.18125514	    -25.39175173	      1.91106595	     -6.45887204	    -10.61468455	     10.50599294	     39.66498074	     89.27753962	    -21.64224174	      2.01549572
      1.55000000	     -4.85914560	      0.19478409	    -83.55787548	      0.33987403	      0.87455479	      0.25903785	     20.89270818	     -5.43996667	    -20.75603706	     20.11291475	      0.35103658	     -2.04511536	      0.00000000	      0.00000000	      0.66710664	      1.32477912	     -2.42053364	     16.39985721	      0.28623151	      8.02048222	      0.00000000	      0.00000000	     -6.56370602	      3.47926098	     -4.20590142	     -6.97139308	     -6.46584116	     -0.97339162	     42.30549909	     89.17675085	    -25.38089762	      1.87770018	     -6.28884073	    -10.57820400	     10.51494198	     39.76568025	     89.25630339	    -21.62242024	      2.00934964
